<?xml version="1.0" encoding="UTF-8" standalone="no"?>
<!-- Created with Inkscape (http://www.inkscape.org/) -->

<svg
   width="270.93335mm"
   height="270.93329mm"
   viewBox="0 0 270.93335 270.93329"
   version="1.1"
   id="svg5"
   inkscape:version="1.2.2 (732a01da63, 2022-12-09)"
   sodipodi:docname="thattime.svg"
   xmlns:inkscape="http://www.inkscape.org/namespaces/inkscape"
   xmlns:sodipodi="http://sodipodi.sourceforge.net/DTD/sodipodi-0.dtd"
   xmlns:xlink="http://www.w3.org/1999/xlink"
   xmlns="http://www.w3.org/2000/svg"
   xmlns:svg="http://www.w3.org/2000/svg">
  <sodipodi:namedview
     id="namedview7"
     pagecolor="#ffffff"
     bordercolor="#000000"
     borderopacity="0.25"
     inkscape:showpageshadow="2"
     inkscape:pageopacity="0.0"
     inkscape:pagecheckerboard="0"
     inkscape:deskcolor="#d1d1d1"
     inkscape:document-units="mm"
     showgrid="false"
     inkscape:zoom="0.11313709"
     inkscape:cx="4856.9397"
     inkscape:cy="-3314.563"
     inkscape:window-width="1366"
     inkscape:window-height="745"
     inkscape:window-x="-8"
     inkscape:window-y="-8"
     inkscape:window-maximized="1"
     inkscape:current-layer="layer1" />
  <defs
     id="defs2">
    <linearGradient
       inkscape:collect="always"
       id="linearGradient8178">
      <stop
         style="stop-color:#fb2200;stop-opacity:1;"
         offset="0"
         id="stop8174" />
      <stop
         style="stop-color:#d21700;stop-opacity:1;"
         offset="0.1015299"
         id="stop8176" />
    </linearGradient>
    <linearGradient
       inkscape:collect="always"
       id="linearGradient6258">
      <stop
         style="stop-color:#ff4e38;stop-opacity:1;"
         offset="0"
         id="stop6254" />
      <stop
         style="stop-color:#fb2200;stop-opacity:1;"
         offset="1"
         id="stop6256" />
    </linearGradient>
    <linearGradient
       inkscape:collect="always"
       xlink:href="#linearGradient8178"
       id="linearGradient2044"
       gradientUnits="userSpaceOnUse"
       gradientTransform="matrix(0.13837761,0.0749395,-0.09261757,0.17102059,1177.7225,552.1632)"
       x1="1276.7861"
       y1="-89.91787"
       x2="1255.8995"
       y2="471.70071" />
    <linearGradient
       inkscape:collect="always"
       xlink:href="#linearGradient6258"
       id="linearGradient2046"
       gradientUnits="userSpaceOnUse"
       gradientTransform="matrix(0.13837761,0.0749395,-0.0749395,0.13837761,1173.416,568.8568)"
       x1="1276.7861"
       y1="-89.91787"
       x2="1255.8995"
       y2="471.70071" />
  </defs>
  <g
     inkscape:label="Layer 1"
     inkscape:groupmode="layer"
     id="layer1"
     transform="translate(-862.94643,-530.86406)">
    <rect
       style="fill:#1e1e1e;stroke-width:0.223742;stroke-linecap:round"
       id="rect1624"
       width="270.93332"
       height="270.93332"
       x="862.94641"
       y="530.86407"
       inkscape:export-filename="SuddenlyAMeteorStruckTheEarthAndIBecameAWaterPurifier\appicon.png"
       inkscape:export-xdpi="96"
       inkscape:export-ydpi="96" />
    <g
       id="g2070"
       transform="matrix(1.3079918,0,0,1.3079918,-769.61985,-174.86139)">
      <path
         style="fill:url(#linearGradient2044);fill-opacity:1;stroke:none;stroke-width:0.836415;stroke-linecap:square;stroke-dasharray:none;stroke-opacity:1"
         d="m 1282.4309,708.83286 c -10.1175,-2.11125 -17.1219,-41.26782 12.9062,-70.29798 29.1316,-28.16353 52.2767,-70.16916 48.9873,-69.66295 -3.7197,13.9932 6.8282,15.45025 -33.2424,61.38293 0,0 8.8476,-13.14805 25.9204,-22.18965 17.0727,-9.04165 33.7937,-31.44083 33.1322,-38.38262 -0.7547,-7.91765 13.6852,-18.55693 13.6852,-18.55693 0,0 2.227,33.39209 -16.0838,49.8098 -14.042,12.5902 4.4525,19.60157 9.2044,16.32299 4.752,-3.27854 15.2541,1.31168 25.8739,-23.29438 10.6198,-24.60608 17.5382,-15.73886 17.5382,-15.73886 0,0 10.7834,2.91384 -10.0432,26.38137 -20.8265,23.46754 -38.4187,40.27926 -26.3326,40.7873 12.0863,0.50809 17.1401,-6.99602 29.963,-23.09398 12.8229,-16.09795 26.8147,-5.9603 2.1662,15.07167 -24.6486,21.03192 -16.2442,17.31626 -24.7318,37.07988 -8.4875,19.76367 -26.2107,52.98949 -39.7526,56.01084 -13.5418,3.02136 -27.7109,0.23923 -33.748,0.37677 -4.971,0.11332 -30.0655,-14.50231 -35.4426,-22.0062 z"
         id="path8164-3"
         sodipodi:nodetypes="csccsscssscsssssssc" />
      <path
         style="fill:url(#linearGradient2046);fill-opacity:1;stroke:none;stroke-width:0.752369;stroke-linecap:square;stroke-dasharray:none;stroke-opacity:1"
         d="m 1286.1142,710.77311 c -9.8483,-2.60831 -19.6791,-36.54568 6.7288,-58.89138 25.6196,-21.67858 44.4057,-55.63478 41.299,-55.46623 -2.4402,11.63072 7.7676,13.71575 -26.8973,49.66667 0,0 7.4137,-10.50036 23.0248,-16.84302 15.6112,-6.34261 29.8181,-24.09951 28.6303,-30.06971 -1.3548,-6.80943 11.6097,-14.72433 11.6097,-14.72433 0,0 4.7996,28.64188 -11.4065,41.17298 -12.4278,9.60977 5.8265,17.06452 10.1107,14.64966 4.2842,-2.4149 14.6986,2.3373 22.892,-17.78847 8.1934,-20.12575 15.5212,-12.0142 15.5212,-12.0142 0,0 10.5494,3.34563 -7.5,21.68507 -18.0494,18.33944 -33.5363,31.26394 -21.9327,32.66301 11.6037,1.39906 15.8389,-4.59361 26.8202,-17.29078 10.9812,-12.69721 25.1777,-2.93743 3.277,13.02039 -21.9007,15.9578 -14.1571,13.46226 -20.6975,29.63069 -6.5406,16.16839 -20.8409,43.07401 -33.5552,44.56705 -12.7142,1.49309 -26.4924,-2.01093 -32.2571,-2.37616 -4.7468,-0.30077 -29.9233,-14.76505 -35.6674,-21.59124 z"
         id="path6203-8"
         sodipodi:nodetypes="csccsscssscsssssssc" />
      <circle
         style="fill:#242424;fill-opacity:1;stroke:none;stroke-width:1.14278;stroke-linecap:square;stroke-dasharray:none;stroke-opacity:1"
         id="path5142-8"
         cx="1497.3995"
         cy="-36.561306"
         r="46.323071"
         transform="rotate(28.438113)" />
      <ellipse
         style="fill:#ff9e69;fill-opacity:1;stroke:none;stroke-width:20;stroke-linecap:square;stroke-dasharray:none;stroke-opacity:1"
         id="path15916-9"
         cx="1490.0735"
         cy="-8.1204681"
         rx="11.265439"
         ry="10.541971"
         transform="rotate(28.04867)" />
      <ellipse
         style="fill:#ff9e69;fill-opacity:1;stroke:none;stroke-width:14.5376;stroke-linecap:square;stroke-dasharray:none;stroke-opacity:1"
         id="ellipse16056-8"
         cx="1537.1252"
         cy="-131.86804"
         rx="7.8702502"
         ry="7.9727907"
         transform="matrix(0.85194588,0.52362985,-0.41930272,0.90784648,0,0)" />
      <ellipse
         style="fill:#ff9e69;fill-opacity:1;stroke:none;stroke-width:14.5376;stroke-linecap:square;stroke-dasharray:none;stroke-opacity:1"
         id="ellipse16058-6"
         cx="1537.1252"
         cy="-131.86804"
         rx="7.8702502"
         ry="7.9727907"
         transform="matrix(0.85194588,0.52362985,-0.41930272,0.90784648,0,0)" />
      <ellipse
         style="fill:#ff9e69;fill-opacity:1;stroke:none;stroke-width:14.5376;stroke-linecap:square;stroke-dasharray:none;stroke-opacity:1"
         id="ellipse16060-7"
         cx="1537.1252"
         cy="-131.86804"
         rx="7.8702502"
         ry="7.9727907"
         transform="matrix(0.85194588,0.52362985,-0.41930272,0.90784648,0,0)" />
      <ellipse
         style="fill:#ff9e69;fill-opacity:1;stroke:none;stroke-width:14.5376;stroke-linecap:square;stroke-dasharray:none;stroke-opacity:1"
         id="ellipse16062-0"
         cx="212.71788"
         cy="1446.8864"
         rx="7.8702502"
         ry="7.9727907"
         transform="matrix(0.65358059,-0.75685693,0.82877756,0.5595782,0,0)" />
    </g>
  </g>
</svg>
